<?xml version="1.0" encoding="utf-8"?>
<!-- Generator: Adobe Illustrator 16.0.0, SVG Export Plug-In . SVG Version: 6.00 Build 0)  -->
<!DOCTYPE svg PUBLIC "-//W3C//DTD SVG 1.1//EN" "http://www.w3.org/Graphics/SVG/1.1/DTD/svg11.dtd">
<svg version="1.1" id="Layer_1" xmlns="http://www.w3.org/2000/svg" xmlns:xlink="http://www.w3.org/1999/xlink" x="0px" y="0px"
	 width="412.844px" height="336.334px" viewBox="0 0 412.844 336.334" enable-background="new 0 0 412.844 336.334"
	 xml:space="preserve">
<path id="pinterest-icon" fill="#FFA1A1" d="M219.453,0C127.76,0,81.523,65.742,81.523,120.563
	c0,33.194,12.569,62.726,39.522,73.733c4.419,1.807,8.38,0.063,9.662-4.831c0.891-3.387,3.002-11.933,3.943-15.487
	c1.292-4.84,0.791-6.54-2.775-10.75c-7.772-9.168-12.74-21.037-12.74-37.848c0-48.774,36.492-92.436,95.023-92.436
	c51.826,0,80.301,31.668,80.301,73.961c0,55.647-24.627,102.621-61.186,102.621c-20.192,0-35.313-16.697-30.461-37.184
	c5.802-24.45,17.042-50.835,17.042-68.485c0-15.797-8.479-28.973-26.026-28.973c-20.639,0-37.22,21.352-37.22,49.955
	c0,18.216,6.156,30.539,6.156,30.539s-21.121,89.494-24.824,105.167c-7.375,31.213-1.109,69.479-0.577,73.343
	c0.31,2.29,3.253,2.834,4.584,1.104c1.904-2.484,26.487-32.842,34.844-63.156c2.365-8.585,13.577-53.055,13.577-53.055
	c6.705,12.787,26.302,24.061,47.142,24.061c62.042,0,104.14-56.563,104.14-132.269C341.639,53.314,293.148,0,219.453,0z"/>
</svg>
